<mxfile host="app.diagrams.net" modified="2024-07-23T09:42:29.208Z" agent="Mozilla/5.0 (Windows NT 10.0; Win64; x64; rv:128.0) Gecko/20100101 Firefox/128.0" version="24.7.3" etag="3na82Gu_o81JGJQrfvOY" type="github">
  <diagram name="Page-1" id="WflQklf6aRjooLY64xzL">
    <mxGraphModel>
      <root>
        <mxCell id="0" />
        <mxCell id="1" parent="0" />
      </root>
    </mxGraphModel>
  </diagram>
</mxfile>
